<?xml version="1.0" encoding="utf-8"?>
<!-- Generator: Adobe Illustrator 24.1.2, SVG Export Plug-In . SVG Version: 6.00 Build 0)  -->
<svg version="1.1" id="Layer_1" xmlns="http://www.w3.org/2000/svg" xmlns:xlink="http://www.w3.org/1999/xlink" x="0px" y="0px"
	 viewBox="0 0 338.88 83.34" style="enable-background:new 0 0 338.88 83.34;" xml:space="preserve">
<style type="text/css">
	.st0{fill-rule:evenodd;clip-rule:evenodd;fill:#011932;}
	.st1{fill-rule:evenodd;clip-rule:evenodd;fill:#0072B3;}
	.st2{fill-rule:evenodd;clip-rule:evenodd;fill:#1FC3F3;}
	.st3{fill-rule:evenodd;clip-rule:evenodd;fill:url(#SVGID_1_);}
	.st4{fill-rule:evenodd;clip-rule:evenodd;fill:url(#SVGID_2_);}
	.st5{fill-rule:evenodd;clip-rule:evenodd;fill:#005C97;}
</style>
<g>
	<g>
		<polygon class="st0" points="137.57,74.69 131.19,74.69 131.19,82.59 137.63,82.59 137.63,81.35 132.7,81.35 132.7,79.23 
			137.01,79.23 137.01,77.99 132.7,77.99 132.7,75.93 137.57,75.93 		"/>
		<polygon class="st0" points="151.22,76.93 151.22,82.59 152.73,82.59 152.73,74.69 151.12,74.69 148.5,78.43 145.88,74.69 
			144.27,74.69 144.27,82.59 145.76,82.59 145.76,76.95 148.45,80.65 148.5,80.65 		"/>
		<path class="st0" d="M162.77,74.69h-3.39v7.9h1.51v-2.54h1.71c1.89,0,3.44-0.93,3.44-2.71C166.04,75.73,164.77,74.69,162.77,74.69
			L162.77,74.69z M162.64,78.8L162.64,78.8h-1.76v-2.85h1.76c1.13,0,1.86,0.49,1.86,1.42C164.5,78.22,163.79,78.8,162.64,78.8z"/>
		<path class="st0" d="M177.19,74.55c-2.64,0-4.51,1.86-4.51,4.1c0,2.24,1.84,4.08,4.49,4.08c2.64,0,4.51-1.86,4.51-4.1
			C181.68,76.39,179.83,74.55,177.19,74.55L177.19,74.55z M177.19,81.45L177.19,81.45c-1.71,0-2.93-1.28-2.93-2.82
			c0-1.55,1.19-2.8,2.9-2.8c1.71,0,2.93,1.28,2.93,2.82C180.09,80.2,178.9,81.45,177.19,81.45z"/>
		<polygon class="st0" points="191.4,80.55 189.35,74.69 187.71,74.69 190.71,82.65 192.02,82.65 194.13,76.97 196.25,82.65 
			197.55,82.65 200.55,74.69 198.96,74.69 196.91,80.55 194.8,74.67 193.52,74.67 		"/>
		<polygon class="st0" points="212.98,74.69 206.59,74.69 206.59,82.59 213.04,82.59 213.04,81.35 208.11,81.35 208.11,79.23 
			212.42,79.23 212.42,77.99 208.11,77.99 208.11,75.93 212.98,75.93 		"/>
		<path class="st0" d="M224.68,79.6c1.2-0.3,2.05-1.1,2.05-2.4c0-1.55-1.22-2.51-3.2-2.51h-3.84v7.9h1.51v-2.75h1.89l2.11,2.75h1.78
			L224.68,79.6L224.68,79.6z M221.22,78.61L221.22,78.61v-2.65h2.2c1.12,0,1.78,0.45,1.78,1.32c0,0.81-0.69,1.33-1.77,1.33H221.22z"
			/>
		<rect x="233.37" y="74.69" class="st0" width="1.51" height="7.9"/>
		<polygon class="st0" points="247.54,80.16 242.93,74.69 241.53,74.69 241.53,82.59 243.01,82.59 243.01,76.97 247.76,82.59 
			249.03,82.59 249.03,74.69 247.54,74.69 		"/>
		<path class="st0" d="M263.72,81.5v-3.32h-3.66v1.21h2.2v1.48c-0.53,0.36-1.27,0.6-2.08,0.6c-1.76,0-2.93-1.2-2.93-2.83
			c0-1.54,1.2-2.8,2.79-2.8c1.09,0,1.75,0.33,2.41,0.85l0.96-1.05c-0.89-0.69-1.81-1.07-3.31-1.07c-2.59,0-4.44,1.87-4.44,4.1
			c0,2.31,1.77,4.08,4.46,4.08C261.65,82.73,262.87,82.16,263.72,81.5z"/>
		<polygon class="st0" points="283.62,82.59 289.66,82.59 289.66,81.33 285.14,81.33 285.14,74.69 283.62,74.69 		"/>
		<rect x="296.3" y="74.69" class="st0" width="1.51" height="7.9"/>
		<polygon class="st0" points="308.01,80.76 305.41,74.69 303.74,74.69 307.32,82.65 308.65,82.65 312.22,74.69 310.59,74.69 		"/>
		<polygon class="st0" points="324.53,74.69 318.15,74.69 318.15,82.59 324.59,82.59 324.59,81.35 319.66,81.35 319.66,79.23 
			323.98,79.23 323.98,77.99 319.66,77.99 319.66,75.93 324.53,75.93 		"/>
		<path class="st0" d="M333.07,76.76c0-0.53,0.52-0.95,1.4-0.95c0.79,0,1.56,0.28,2.34,0.81l0.81-1.05
			c-0.87-0.64-1.87-0.99-3.12-0.99c-1.71,0-2.94,0.93-2.94,2.3c0,1.47,1.03,1.96,2.86,2.37c1.6,0.34,1.94,0.64,1.94,1.22
			c0,0.61-0.59,1-1.52,1c-1.07,0-1.89-0.37-2.72-1.03l-0.91,0.99c1.03,0.85,2.27,1.26,3.59,1.26c1.81,0,3.07-0.88,3.07-2.37
			c0-1.32-0.95-1.92-2.77-2.33C333.46,77.65,333.07,77.38,333.07,76.76z"/>
	</g>
	<rect x="131.15" y="66.61" class="st1" width="206.73" height="2.91"/>
	<g>
		<polygon class="st2" points="115.81,82.73 59.31,41.9 1.63,82.73 59.31,1.46 		"/>
		<polygon class="st2" points="59.31,41.9 115.81,82.73 59.31,1.46 		"/>
		
			<linearGradient id="SVGID_1_" gradientUnits="userSpaceOnUse" x1="292.754" y1="169.3429" x2="98.1524" y2="196.6924" gradientTransform="matrix(0 1 -1 0 214.0119 -129.4126)">
			<stop  offset="0" style="stop-color:#00C0ED"/>
			<stop  offset="0.183" style="stop-color:#06A3D1"/>
			<stop  offset="0.5633" style="stop-color:#116C9D"/>
			<stop  offset="0.847" style="stop-color:#17497C"/>
			<stop  offset="1" style="stop-color:#1A3C70"/>
		</linearGradient>
		<polygon class="st3" points="59.31,41.9 59.19,82.7 1.63,82.73 		"/>
		
			<linearGradient id="SVGID_2_" gradientUnits="userSpaceOnUse" x1="292.2" y1="145.984" x2="104.4733" y2="109.4937" gradientTransform="matrix(0 1 -1 0 214.0119 -129.4126)">
			<stop  offset="0" style="stop-color:#00C0ED"/>
			<stop  offset="0.183" style="stop-color:#06A3D1"/>
			<stop  offset="0.5633" style="stop-color:#116C9D"/>
			<stop  offset="0.847" style="stop-color:#17497C"/>
			<stop  offset="1" style="stop-color:#1A3C70"/>
		</linearGradient>
		<polygon class="st4" points="59.31,41.9 59.07,82.39 115.81,82.73 		"/>
		<polygon class="st5" points="115.81,82.73 59.29,66.08 1.63,82.73 		"/>
		<path class="st5" d="M59.31,1.46c0.06,0.08,0.22,0.32,0.26,0.38l-0.02,67.54c0,0.13-0.12,0.24-0.26,0.24
			c-0.14,0-0.26-0.11-0.26-0.24V1.86c0-0.01,0-0.02,0-0.02C59.23,1.58,59.16,1.68,59.31,1.46z"/>
	</g>
	<path class="st0" d="M176.55,1.23h-17.5l-27.88,65.38h19.09l4.68-11.59h25.26l4.77,11.59h19.46L176.55,1.23L176.55,1.23z
		 M160.27,41.01L160.27,41.01l7.39-18.46l7.3,18.46H160.27z"/>
	<path class="st0" d="M253.96,43.82c8.2-3.46,13.57-10.09,13.57-20.08v-0.19c0-6.44-1.98-11.49-5.84-15.22
		c-4.43-4.48-11.4-7.1-21.48-7.1h-31.19v65.38h18.28v-19.8h7.82h0.19l13.29,19.8h21.11L253.96,43.82L253.96,43.82z M249.16,24.86
		L249.16,24.86c0,4.76-3.58,7.75-9.8,7.75H227.3V16.92h11.97c6.12,0,9.89,2.61,9.89,7.75V24.86z"/>
	<polygon class="st0" points="274.44,66.61 292.7,66.61 292.7,49.72 299.38,42.35 315.95,66.61 337.88,66.61 312.09,29.38 
		337.03,1.3 315.38,1.3 292.7,27.8 292.7,1.3 274.44,1.3 	"/>
</g>
</svg>
